<svg width="299" height="378" viewBox="0 0 299 378" fill="none" xmlns="http://www.w3.org/2000/svg">
<path d="M96.0424 201.856L60.3163 241.804L86.4461 254.934C100.642 260.27 117.591 262.576 133.648 261.586C136.737 261.403 139.806 261.08 142.799 260.615C146.926 260.063 150.728 258.084 153.547 255.021C162.002 245.913 160.906 228.796 149.764 223.885C147.793 223.024 145.671 222.562 143.52 222.528C139.999 222.573 136.485 222.222 133.043 221.481C128.489 220.485 124.079 218.917 119.917 216.817L117.815 215.753C111.546 212.426 105.522 208.197 99.0883 203.862C98.0924 203.176 97.0771 202.507 96.0424 201.856Z" fill="#FFD997"/>
<path d="M145.766 217.222C153.955 216.583 163.9 213.384 167.86 223.123C170.762 229.557 171.01 237.308 171.916 244.209C172.59 249.378 172.534 256.141 168.181 259.495C162.136 263.834 147.263 265.447 139.849 264.189C127.927 262.228 120.384 244.879 124.314 231.988C127.3 222.981 137.551 217.831 145.766 217.222Z" fill="#FFF2A6"/>
<path d="M215.14 199.97C212.374 200.338 211.405 202.722 207.129 205.222C202.854 207.721 188.429 213.602 181.188 215.598C173.946 217.595 166.474 219.272 159.046 220.648C149.376 222.449 145.455 225.523 144.131 234.57C143.206 241.006 146.269 250.915 151.794 254.172C157.319 257.429 163.003 255.51 173.252 253.299C202.008 247.021 220.851 235.682 230.942 224.643C234.789 220.428 238.211 213.969 236.675 208.363C235.14 202.756 230.425 199.878 224.802 201.69C223.249 202.183 221.118 203.558 219.757 202.62C219.142 202.224 218.294 199.624 215.14 199.97Z" fill="url(#paint0_linear_18002_115287)"/>
<path d="M36.0743 138.93L6.52505 165.266L4.36048 290.927C14.3323 278.579 99.2054 222.533 103.195 208.121L99.0865 203.864L43.2468 146.331L43.2207 146.301L38.692 141.632L36.0743 138.93Z" fill="#423D80"/>
<path d="M-11.4742 145.067L17.0758 177.101C18.2652 176.67 19.4546 176.239 20.5888 175.805C34.7056 170.461 47.6457 162.914 44.2558 149.048C44.0408 148.101 43.7018 147.186 43.2476 146.328L43.2215 146.299C42.2072 144.328 40.6311 142.703 38.6927 141.629C37.4958 140.924 36.2134 140.375 34.8767 139.995C24.7611 137.001 7.76046 139.934 -11.4742 145.067Z" fill="#FFD997"/>
<path d="M59.7535 166.967L58.5196 190.355L57.3778 212.141C63.3491 211.015 69.591 208.074 74.9549 204.971C79.9402 202.092 84.6901 198.823 89.1602 195.195L59.7535 166.967Z" fill="#FFD997"/>
<path d="M89.1602 195.195L59.7535 166.967L58.5196 190.355C62.9702 197.35 68.8586 202.486 74.9549 204.971C79.9402 202.092 84.6901 198.823 89.1602 195.195Z" fill="url(#paint1_linear_18002_115287)"/>
<path d="M54.6177 150.67C54.6177 150.67 54.3877 151.295 54.0478 152.384L55.2461 151.316L54.6177 150.67Z" fill="url(#paint2_linear_18002_115287)"/>
<path d="M100.941 241.072C101.141 241.286 101.385 241.455 101.656 241.566C101.928 241.677 102.22 241.729 102.512 241.717C103.025 241.67 103.5 241.426 103.837 241.037C104.175 240.649 104.349 240.145 104.324 239.63C103.538 228.216 115.419 221.246 119.049 219.374C119.31 219.28 119.548 219.131 119.748 218.937C119.947 218.744 120.103 218.51 120.205 218.251C120.306 217.993 120.352 217.715 120.339 217.438C120.325 217.16 120.252 216.889 120.126 216.641C119.999 216.394 119.821 216.176 119.604 216.003C119.387 215.83 119.135 215.705 118.866 215.636C118.596 215.568 118.316 215.557 118.042 215.606C117.768 215.654 117.508 215.761 117.279 215.917C113.107 218.062 99.5007 226.098 100.455 239.879C100.481 240.32 100.652 240.739 100.941 241.072Z" fill="#FFC257"/>
<path d="M140.806 100.154L157.227 130.464C157.227 130.464 162.306 128.454 169.364 125.311C174.218 123.159 186.778 115.399 198.071 108.349C207.648 102.371 209.634 88.9725 202.123 80.5451C197.385 75.2286 190.009 73.4484 183.718 76.7861C170.547 83.7739 150.981 95.5296 142.116 99.5636C142.054 99.5979 141.987 99.6221 141.918 99.6354C141.681 99.7346 141.452 99.8511 141.232 99.9842C141.063 100.03 140.975 100.108 140.806 100.154Z" fill="#FF78B9"/>
<path d="M146.847 108.932L154.496 120.103C156.42 119.437 158.688 118.569 161.184 117.604C168.353 114.727 183.125 106.216 193.27 100.541C197.058 98.4227 197.977 93.2805 195.09 90.0409C193.295 88.0268 190.456 87.2957 187.986 88.3809C177.076 93.1735 159.061 103.331 150.324 107.302C149.099 107.869 147.932 108.384 146.847 108.932Z" fill="#FFAED7"/>
<path d="M135.988 100.685L111.382 76.5424C111.382 76.5424 114.715 72.2144 119.683 66.2974C123.09 62.2249 134.014 52.2926 143.905 43.3813C152.292 35.8252 165.719 37.6109 171.748 47.1547C175.551 53.1756 175.228 60.7568 170.285 65.8833C159.935 76.6157 143.239 92.1809 136.917 99.5894C136.867 99.6394 136.825 99.697 136.793 99.7601C136.632 99.9604 136.457 100.149 136.269 100.323C136.178 100.473 136.079 100.536 135.988 100.685Z" fill="#FF78B9"/>
<path d="M129.217 92.4597L120.588 82.0265C121.759 80.3608 123.219 78.4198 124.835 76.2872C129.577 70.189 141.833 58.3378 150.086 50.151C153.166 47.0949 158.363 47.6296 160.68 51.2984C162.121 53.5793 162.041 56.5096 160.317 58.5846C152.701 67.7492 137.969 82.2641 131.743 89.5674C130.859 90.5885 130.042 91.5677 129.217 92.4597Z" fill="#FFAED7"/>
<path d="M65.5907 96.0235C64.6013 91.6332 64.6789 87.0696 65.817 82.7155C66.9552 78.3614 69.1207 74.3436 72.132 70.999C74.5047 68.3412 77.3874 66.1874 80.609 64.6657C83.8305 63.1439 87.325 62.2853 90.8849 62.1408C94.4449 61.9963 97.9975 62.5688 101.332 63.8244C104.666 65.08 107.714 66.9931 110.294 69.4499L173.911 129.649C184.325 139.51 185.04 156.494 175.522 167.704C169.604 174.657 161.077 177.799 152.95 176.86C157.626 187.167 156.115 199.947 148.233 209.227C137.702 221.655 119.669 223.252 107.993 212.681L35.1798 146.989C22.8686 135.883 22.089 116.649 33.3709 104.181C37.3204 99.7703 42.496 96.6377 48.2356 95.1845C53.9753 93.7312 60.018 94.0233 65.5907 96.0235Z" fill="#FF78B9"/>
<path d="M97.4767 117.414C98.3645 113.27 100.901 110.3 103.142 110.78C105.383 111.26 106.48 115.009 105.593 119.153C104.705 123.297 102.169 126.267 99.9274 125.787C97.6862 125.307 96.589 121.558 97.4767 117.414Z" fill="black"/>
<path d="M123.859 148.82C122.952 146.715 125.372 143.649 129.264 141.972C133.156 140.295 137.047 140.642 137.954 142.747C138.86 144.852 136.44 147.918 132.548 149.595C128.656 151.272 124.766 150.925 123.859 148.82Z" fill="black"/>
<path d="M91.0164 141.436C90.0182 143.847 89.6648 147.099 90.2188 150.486C90.9106 154.852 92.9602 158.269 95.3485 159.655C96.9985 160.859 99.5616 161.616 102.472 161.645C103.138 161.628 103.779 161.581 104.448 161.509C110.056 160.916 114.793 158.582 114.58 154.577C114.367 150.571 109.971 150.346 106.705 149.742C105.72 149.568 104.799 149.131 104.041 148.478C103.283 147.824 102.716 146.978 102.399 146.029C101.159 142.519 99.4257 137.455 95.3485 137.471C93.4761 137.723 91.9467 139.244 91.0164 141.436Z" fill="#9E0960"/>
<path d="M95.3462 159.655C96.9962 160.86 99.5593 161.617 102.469 161.646C103.546 156.91 101.701 150.898 97.2336 146.121C95.4623 144.195 93.3547 142.608 91.0141 141.437C90.0159 143.848 89.6625 147.1 90.2165 150.487C90.9083 154.853 92.9579 158.27 95.3462 159.655Z" fill="#EB459F"/>
<defs>
<linearGradient id="paint0_linear_18002_115287" x1="149.498" y1="246.847" x2="233.783" y2="205.8" gradientUnits="userSpaceOnUse">
<stop stop-color="#EB459F"/>
<stop offset="0.23" stop-color="#F154A7"/>
<stop offset="0.71" stop-color="#FB6EB4"/>
<stop offset="1" stop-color="#FF78B9"/>
</linearGradient>
<linearGradient id="paint1_linear_18002_115287" x1="56.549" y1="197.042" x2="81.9421" y2="174.41" gradientUnits="userSpaceOnUse">
<stop stop-color="#EB459F"/>
<stop offset="0.42" stop-color="#F45CAB"/>
<stop offset="1" stop-color="#FF78B9"/>
</linearGradient>
<linearGradient id="paint2_linear_18002_115287" x1="-646.402" y1="177.264" x2="-638.122" y2="169.883" gradientUnits="userSpaceOnUse">
<stop stop-color="#EB459F"/>
<stop offset="0.42" stop-color="#F45CAB"/>
<stop offset="1" stop-color="#FF78B9"/>
</linearGradient>
</defs>
</svg>
