<svg width="241" height="449" viewBox="0 0 241 449" fill="none" xmlns="http://www.w3.org/2000/svg">
<path d="M183.542 109.861C176.734 115.018 165.572 126.922 158.116 133.85C141.92 148.989 123.112 145.929 113.428 162.839C103.743 179.75 115.874 194.469 111.039 216.054C108.81 226.036 104.218 241.641 103.189 250.169C102.06 259.619 102.661 271.712 111.733 275.745C116.21 277.758 120.973 277.242 125.981 273.625C130.99 270.007 146.756 251.133 177.314 197.774C207.872 144.415 214.688 123.965 215.333 117.603C215.978 111.242 213.927 107.13 209.952 104.241C201.882 98.4575 191.148 104.059 183.542 109.861Z" fill="url(#paint0_linear_18002_115310)"/>
<path d="M204.589 114.141C212.099 118.442 194.145 153.319 170.105 195.297C146.065 237.274 125.044 270.455 117.533 266.154C110.022 261.852 123.395 224.291 147.435 182.313C171.475 140.336 197.032 109.813 204.589 114.141Z" fill="#8F473B"/>
<path d="M156.287 209.596C156.532 209.736 156.71 209.967 156.784 210.239C156.858 210.51 156.821 210.8 156.681 211.045C153.013 217.45 143.838 231.226 132.671 242.392C126.599 248.4 121.01 252.603 115.983 254.864C116.076 254.06 116.267 253.191 116.459 252.322C121.652 249.666 126.853 245.179 131.138 240.902C142.226 229.874 151.223 216.302 154.838 209.989C154.978 209.745 155.209 209.566 155.481 209.492C155.753 209.418 156.043 209.456 156.287 209.596ZM151.991 204.382C147.157 211.648 136.061 223.651 124.359 228.698L123.256 231.371C126.869 230.015 130.302 228.22 133.477 226.026C141.425 220.473 148.304 213.53 153.782 205.529L153.808 205.483C153.94 205.255 153.983 204.985 153.927 204.727C153.871 204.469 153.721 204.24 153.506 204.087C153.265 203.931 152.972 203.875 152.69 203.93C152.407 203.985 152.157 204.147 151.991 204.382ZM153.521 195.834C148.49 200.321 142.69 203.861 136.4 206.284C135.721 206.507 135.016 206.776 134.219 206.993L132.959 209.514C134.387 209.183 135.793 208.762 137.169 208.254C143.694 205.715 149.717 202.036 154.955 197.39L155.113 197.114C155.236 196.894 155.276 196.638 155.227 196.391C155.179 196.144 155.044 195.923 154.847 195.766C154.651 195.61 154.405 195.528 154.153 195.535C153.902 195.543 153.662 195.64 153.475 195.808L153.521 195.834ZM142.863 190.404L141.755 192.339C150.085 193.928 155.856 192.399 156.192 192.346C156.328 192.315 156.456 192.257 156.569 192.173C156.681 192.09 156.775 191.985 156.845 191.863C156.914 191.742 156.958 191.608 156.972 191.469C156.987 191.33 156.973 191.189 156.93 191.056C156.9 190.92 156.841 190.791 156.758 190.679C156.675 190.566 156.569 190.472 156.448 190.403C156.326 190.333 156.192 190.29 156.053 190.275C155.914 190.26 155.773 190.275 155.64 190.317C155.614 190.363 150.403 191.662 142.863 190.404ZM192.142 120.169C193.127 136.826 181.332 163.727 175.051 174.693C174.911 174.938 174.874 175.228 174.948 175.499C175.022 175.771 175.201 176.003 175.445 176.143C175.69 176.283 175.98 176.32 176.251 176.246C176.523 176.172 176.755 175.993 176.895 175.749C180.536 169.39 187.775 154.505 191.781 139.176C193.89 130.9 194.687 123.952 194.093 118.472L192.142 120.169ZM177.511 136.634L175.764 138.937C177.306 151.63 172.595 167.229 168.748 175.122C168.69 175.25 168.658 175.388 168.654 175.528C168.65 175.668 168.673 175.808 168.723 175.939C168.773 176.07 168.849 176.19 168.946 176.292C169.042 176.394 169.158 176.475 169.287 176.532C169.405 176.592 169.534 176.628 169.667 176.638C169.799 176.648 169.932 176.632 170.058 176.59C170.184 176.549 170.301 176.483 170.401 176.396C170.502 176.31 170.584 176.204 170.644 176.085L170.67 176.039C174.783 167.278 177.282 157.848 178.047 148.2C178.34 144.337 178.16 140.453 177.511 136.634ZM163.543 156.109L162.033 158.426C163.857 165.712 163.407 174.511 162.15 180.767C162.105 181.038 162.167 181.315 162.323 181.541C162.479 181.767 162.716 181.924 162.985 181.979C163.205 182.047 163.442 182.033 163.653 181.94C163.864 181.847 164.034 181.682 164.132 181.473L164.29 181.197C165.646 174.327 165.771 167.272 164.659 160.358C164.397 158.915 164.024 157.495 163.543 156.109ZM152.072 174.322C156.974 180.189 158.49 185.341 158.51 185.413C158.541 185.549 158.599 185.678 158.683 185.79C158.766 185.903 158.871 185.997 158.993 186.066C159.114 186.136 159.248 186.179 159.387 186.194C159.526 186.209 159.667 186.194 159.8 186.152C159.936 186.121 160.065 186.062 160.177 185.979C160.29 185.896 160.384 185.791 160.453 185.669C160.523 185.548 160.566 185.414 160.581 185.275C160.596 185.136 160.581 184.995 160.539 184.862C160.44 184.499 158.812 178.794 153.253 172.367L152.072 174.322Z" fill="#4C131A"/>
<path d="M151.161 155.932C141.193 166.5 140.243 154.269 146.735 149.237C153.227 144.204 161.657 144.871 151.161 155.932ZM132.971 147.84C125.203 151.04 118.205 154.498 113.429 162.838L112.874 163.806C115.377 164.138 119.428 163.582 125.502 161.737C136.629 158.441 137.71 150.677 132.971 147.84ZM111.04 216.053C110.207 219.859 108.997 224.428 107.8 229.189C112.402 231.518 117.873 220.149 119.545 213.275C122.858 199.262 117.272 194.166 111.56 195.484C112.371 201.762 112.753 208.467 111.04 216.053ZM121.748 182.717C128.384 199.123 139.662 182.635 132.1 177.142C122.458 170.151 118.134 173.855 121.748 182.717Z" fill="#EDB997"/>
<path d="M170.331 171.064C165.477 170.242 160.063 177.667 154.997 186.514L154.865 186.744C149.798 195.591 146.135 204.018 149.299 207.788C152.463 211.559 189.871 235.245 208.782 246.565L233.877 202.745C214.57 192.116 175.421 171.898 170.331 171.064Z" fill="url(#paint1_linear_18002_115310)"/>
<path d="M187.797 199.118C196.598 204.158 197.661 208.5 196.553 210.435C195.445 212.37 191.136 213.696 182.335 208.656L187.797 199.118Z" fill="white"/>
<path d="M173.262 202.178C173.012 201.365 171.446 201.126 169.765 201.643C168.083 202.16 166.922 203.239 167.172 204.052C167.422 204.864 168.988 205.104 170.67 204.587C172.352 204.069 173.513 202.991 173.262 202.178Z" fill="black"/>
<path d="M178.58 191.159C178.175 189.446 177.176 188.217 176.348 188.412C175.52 188.608 175.178 190.155 175.582 191.867C175.987 193.58 176.986 194.809 177.814 194.614C178.642 194.418 178.984 192.871 178.58 191.159Z" fill="black"/>
<path d="M204.026 164.904C203.011 165.608 203.713 169.192 203.141 174.249C202.57 179.307 201.065 182.79 196.387 184.761C191.709 186.733 186.834 188.407 184.803 190.671C182.772 192.935 182.348 195.813 183.219 201.451C183.296 201.881 183.22 202.325 183.002 202.704C182.785 203.083 182.441 203.374 182.031 203.525C176.754 205.581 174.473 207.641 173.562 210.301C172.65 212.96 173.653 218.369 174.326 223.283C175 228.197 173.048 231.178 168.678 234.428C164.308 237.677 161.159 238.688 161.066 239.92C160.972 241.151 168.665 241.396 171.254 240.186C172.78 239.392 173.957 238.06 174.558 236.449C174.594 236.355 174.649 236.27 174.721 236.2C174.793 236.13 174.88 236.077 174.974 236.044C175.069 236.011 175.17 235.999 175.27 236.008C175.37 236.018 175.466 236.05 175.553 236.101C176.79 236.932 179.41 238.126 181.5 235.652C183.59 233.177 182.838 228.402 182.326 226.517C182.268 226.292 182.291 226.053 182.389 225.841C182.488 225.63 182.657 225.46 182.867 225.359C183.868 224.892 185.648 223.708 186.968 220.976C189.099 216.506 187.585 209.214 186.699 205.953C186.615 205.588 186.672 205.206 186.857 204.881C187.043 204.557 187.345 204.314 187.701 204.202C190.962 203.316 198.018 200.932 200.769 196.877C202.484 194.31 202.578 192.223 202.5 191.077C202.49 190.846 202.555 190.619 202.686 190.429C202.817 190.239 203.006 190.096 203.225 190.023C205.109 189.512 209.524 188.001 210.686 184.689C211.848 181.377 209.38 180.025 208.063 179.332C207.968 179.291 207.883 179.228 207.818 179.147C207.752 179.066 207.708 178.971 207.688 178.869C207.668 178.767 207.673 178.661 207.703 178.562C207.733 178.462 207.787 178.372 207.86 178.298C208.946 176.964 209.499 175.275 209.412 173.557C209.145 170.712 205.641 163.688 204.026 164.904Z" fill="#6A2D32"/>
<path d="M248.144 325.287C249.052 326.48 250.742 329.406 252.786 333.208C255.738 338.632 259.4 345.807 262.378 352.041L243.193 385.54L237.224 373.738L224.655 349.1L222.452 344.719L248.144 325.287Z" fill="#AA5F44"/>
<path d="M248.143 325.288C249.669 327.325 253.594 334.468 257.486 342.204C247.864 347.892 233.813 351.165 224.607 349.075L222.451 344.719L248.143 325.288Z" fill="black"/>
<path d="M246.861 379.135L240.575 414.078C234.823 410.233 218.496 398.32 212.158 393.894C204.931 388.776 198.237 383.903 194.19 380.606L212.69 360.055L225.625 367.279L237.224 373.738L246.861 379.135Z" fill="url(#paint2_linear_18002_115310)"/>
<path d="M205.734 389.3L220.484 364.398L227.765 368.567C230.093 379.569 226.471 392.303 220.668 399.872C215.613 396.304 210.42 392.657 205.734 389.3Z" fill="#8F473B"/>
<path d="M198.313 400.226L164.817 364.154C164.817 364.154 161.575 365.541 159.178 364.596C156.782 363.652 155.094 358.586 155.094 358.586C155.094 358.586 148.091 360.878 142.492 361.037C139.179 361.159 130.242 360.63 129.465 353.76C128.884 348.899 133.707 346.032 133.707 346.032C133.707 346.032 128.163 345.243 127.679 340.744C127.196 336.245 130.728 334.352 130.728 334.352C130.728 334.352 104.512 323.927 101.115 322.166C97.7182 320.404 101.903 310.318 105.051 311.019C115.383 313.387 138.946 322.353 140.395 322.815C140.908 322.987 142.28 321.019 141.826 320.637C141.372 320.254 114.531 301.946 112.669 299.533C110.807 297.121 114.555 290.15 118.493 290.753C120.804 291.097 151.013 307.052 161.98 313.76C167.093 310.814 171.9 312.037 174.287 316.525C176.134 320.031 181.964 339.34 181.964 339.34C181.964 339.34 184.351 337.097 186.714 337.777C189.078 338.458 188.844 342.179 188.849 343.773C188.873 343.981 188.941 344.181 189.05 344.36C189.159 344.539 189.306 344.691 189.481 344.807C193.536 347.13 218.728 360.945 224.889 364.29C225.196 364.457 225.445 364.712 225.606 365.022C225.766 365.332 225.83 365.683 225.79 366.03C224.957 374.412 221.751 382.383 216.548 389.007C208.76 398.865 202.528 400.131 199.854 400.741C199.575 400.814 199.28 400.804 199.007 400.712C198.733 400.621 198.492 400.452 198.313 400.226Z" fill="#6A2D32"/>
<path d="M150.384 331.657C151.034 332.184 151.784 332.573 152.589 332.803C153.393 333.032 154.236 333.096 155.066 332.992L155.211 332.953C158.109 332.593 163.329 328.179 165.116 326.449C165.311 326.279 165.56 326.187 165.819 326.188C166.077 326.189 166.326 326.285 166.519 326.457C166.626 326.533 166.716 326.63 166.784 326.743C166.852 326.856 166.896 326.981 166.914 327.112C166.931 327.242 166.921 327.375 166.884 327.501C166.848 327.628 166.786 327.745 166.702 327.846C166.675 327.892 163.114 333.257 164.453 338.185C165.792 343.112 170.946 346.186 170.992 346.213C171.224 346.346 171.394 346.566 171.464 346.824C171.534 347.082 171.499 347.358 171.366 347.59L171.339 347.636C171.271 347.755 171.18 347.859 171.07 347.941C170.961 348.024 170.836 348.083 170.703 348.116C170.57 348.148 170.431 348.153 170.296 348.131C170.161 348.108 170.032 348.058 169.916 347.983C169.686 347.852 163.959 344.388 162.424 338.736C161.831 336.236 161.971 333.618 162.826 331.195C160.862 332.701 158.489 334.28 156.434 334.877C156.59 336.313 156.634 338.908 155.526 340.844C155.291 341.269 154.988 341.654 154.629 341.982C153.9 342.626 153.066 343.142 152.164 343.508C152.875 343.622 153.551 343.896 154.142 344.308C154.732 344.72 155.221 345.261 155.574 345.889C156.11 346.827 156.435 347.872 156.526 348.949C156.617 350.027 156.472 351.111 156.101 352.126L155.917 352.449C155.046 353.969 151.671 356.871 138.307 357.662C138.171 357.676 138.034 357.662 137.904 357.622C137.774 357.582 137.653 357.516 137.549 357.428C137.445 357.34 137.36 357.231 137.299 357.109C137.238 356.988 137.203 356.855 137.194 356.719C137.185 356.577 137.204 356.435 137.25 356.301C137.296 356.168 137.369 356.044 137.464 355.939C137.558 355.833 137.673 355.748 137.801 355.687C137.929 355.627 138.068 355.593 138.21 355.587C148.926 354.932 153.572 352.697 154.146 351.374C154.389 350.658 154.482 349.901 154.418 349.148C154.354 348.395 154.135 347.664 153.775 347C153.575 346.611 153.282 346.278 152.923 346.029C152.564 345.781 152.149 345.625 151.714 345.575C149.212 345.244 145.418 345.457 142.362 345.665L142.217 345.705C139.424 345.88 137.244 346.161 137.244 346.161C137.105 346.186 136.961 346.181 136.824 346.147C136.686 346.113 136.557 346.051 136.446 345.964C136.334 345.877 136.242 345.767 136.175 345.642C136.109 345.517 136.069 345.379 136.059 345.238C136.033 345.103 136.036 344.964 136.068 344.83C136.101 344.696 136.161 344.571 136.246 344.463C136.332 344.355 136.439 344.266 136.562 344.203C136.684 344.141 136.819 344.105 136.956 344.099C137.174 344.04 139.426 343.739 142.338 343.571C145.249 343.402 151.085 342.4 153.195 340.426C154.447 339.308 154.496 336.766 154.326 335.139C152.331 335.216 150.387 334.499 148.92 333.145C148.438 332.69 148.041 332.152 147.75 331.556L147.394 331.536C138.213 331.112 135.697 331.018 130.636 334.3C130.379 334.214 129.543 333.857 128.286 333.382C134.698 328.916 137.359 328.971 147.159 329.382L147.14 328.454C147.375 324.304 151.912 317.663 159.886 312.501C160.624 312.923 161.315 313.319 161.933 313.734C153.511 318.824 149.455 325.373 149.274 328.574C149.219 329.138 149.29 329.707 149.482 330.241C149.674 330.774 149.982 331.258 150.384 331.657Z" fill="black"/>
<path d="M182.036 339.32C182.619 342.897 181.226 346.504 180.157 348.585C180.042 348.838 180.027 349.125 180.113 349.39C180.199 349.654 180.381 349.877 180.623 350.014C180.868 350.126 181.146 350.144 181.404 350.067C181.661 349.99 181.883 349.822 182.027 349.594L182.053 349.548C183.313 347.027 185.017 342.556 183.914 338.07C183.223 338.379 182.588 338.801 182.036 339.32Z" fill="#4C131A"/>
<path d="M173.193 358.611C173.153 358.549 173.1 358.497 173.037 358.459C172.975 358.42 172.904 358.397 172.83 358.391C172.757 358.384 172.683 358.395 172.615 358.422C172.546 358.448 172.485 358.491 172.435 358.545C170.464 361.054 167.9 363.034 164.974 364.307L179.614 380.095C177.921 373.007 175.178 362.196 173.193 358.611Z" fill="#4C131A"/>
<path d="M329.875 162.701L330.341 164.559C331.325 169.038 333.473 181.1 331.327 194.678L330.87 196.865C329.84 201.262 328.476 205.574 326.788 209.763C330.618 212.263 334.693 215.086 338.905 218.416L275.467 329.188C270.834 327.397 266.297 325.37 261.872 323.116C259.101 326.704 256.064 330.079 252.786 333.211L251.158 334.665C240.533 343.388 229.016 347.684 224.655 349.103L222.817 349.641C222.817 349.641 216.052 336.344 207.887 320.898C204.705 314.915 199.354 303.528 199.512 297.377C199.824 287.643 206.331 273.93 231.268 230.386L231.294 230.34C256.258 186.75 264.766 174.244 273.004 169.049C278.256 165.754 290.758 164.653 297.555 164.323C315.009 163.55 329.875 162.701 329.875 162.701Z" fill="url(#paint3_linear_18002_115310)"/>
<path d="M326.9 209.459C320.001 205.263 313.083 201.424 312.945 201.344C312.728 201.212 312.563 201.01 312.478 200.771C312.458 200.699 310.579 195.217 308.172 192.37C308.078 192.268 308.006 192.149 307.961 192.018C307.915 191.888 307.897 191.75 307.907 191.612C307.917 191.474 307.955 191.34 308.019 191.218C308.083 191.096 308.171 190.988 308.278 190.901C308.38 190.807 308.499 190.735 308.63 190.69C308.76 190.644 308.898 190.626 309.036 190.636C309.173 190.646 309.308 190.684 309.43 190.748C309.552 190.812 309.66 190.9 309.747 191.008C312.069 193.684 313.83 198.302 314.323 199.686C315.797 200.53 321.676 203.836 327.633 207.431L326.9 209.459ZM246.849 315.368C246.777 315.388 241.099 316.541 237.45 315.86C237.311 315.834 237.168 315.837 237.03 315.868C236.891 315.899 236.761 315.957 236.645 316.039C236.53 316.121 236.432 316.226 236.357 316.346C236.283 316.467 236.233 316.601 236.211 316.741C236.182 316.876 236.18 317.015 236.207 317.151C236.234 317.286 236.288 317.415 236.366 317.528C236.445 317.642 236.545 317.738 236.662 317.811C236.779 317.885 236.91 317.933 237.047 317.954C240.557 318.556 245.405 317.784 246.847 317.508C248.322 318.353 254.141 321.869 260.236 325.115L261.568 323.43C254.551 319.656 247.719 315.56 247.626 315.507C247.513 315.433 247.386 315.382 247.252 315.358C247.119 315.334 246.982 315.338 246.849 315.368Z" fill="black"/>
<path d="M255.875 176.307C253.753 178.09 251.484 181.625 251.484 181.625C246.269 179.618 240.074 177.294 238.63 178.425C237.187 179.556 221.942 198.056 210.331 218.33C198.72 238.605 190.447 260.852 190.208 262.979C189.968 265.106 195.128 268.918 199.472 272.445C199.472 272.445 197.572 276.191 197.134 278.878C196.697 281.565 200.304 283.814 210.689 285.233C219.777 286.46 231.747 290.134 244.008 286.569C275.077 277.622 291.542 271.202 294.286 266.41C297.031 261.618 294.208 244.215 286.203 212.89C283.099 200.465 273.874 192 268.216 184.782C261.737 176.544 258.373 174.189 255.875 176.307Z" fill="#FF6666"/>
<path d="M220.995 253.135C220.783 252.954 220.651 252.698 220.627 252.421C220.603 252.144 220.688 251.868 220.865 251.653C223.199 248.645 226.145 246.6 228.92 244.64C233.151 241.739 237.112 238.99 239.805 233.006C242.497 227.021 242.41 222.26 242.415 216.266C242.453 211.392 242.485 205.781 243.96 199.038C246.017 189.569 247.978 183.9 249.318 180.813C249.97 181.063 250.668 181.341 251.3 181.519C250.013 184.515 248.085 190.019 246.027 199.488C244.566 205.994 244.541 211.487 244.529 216.314C244.464 222.518 244.446 227.893 241.753 233.877L240.631 236.049C237.729 241.118 233.867 243.802 230.13 246.373C227.355 248.333 224.706 250.181 222.503 252.959C222.417 253.071 222.309 253.164 222.186 253.234C222.063 253.304 221.927 253.348 221.786 253.364C221.646 253.381 221.503 253.369 221.368 253.33C221.232 253.29 221.105 253.224 220.995 253.135ZM221.349 268.758L211.821 273.642C205.87 276.66 200.789 273.566 199.42 272.537L198.522 274.532C200.563 275.884 206.198 278.866 212.761 275.527L222.362 270.623C232.555 265.324 243.092 259.854 250.985 256.97C251.224 256.885 251.426 256.72 251.558 256.503C251.691 256.231 251.717 255.918 251.632 255.627C251.522 255.366 251.32 255.153 251.064 255.029C250.809 254.905 250.516 254.878 250.243 254.954C242.251 257.904 231.642 263.393 221.349 268.758ZM265.091 202.634C264.985 202.718 264.896 202.822 264.83 202.94C264.765 203.058 264.724 203.189 264.709 203.323C264.695 203.458 264.708 203.594 264.747 203.723C264.787 203.853 264.852 203.973 264.939 204.077C267.524 207.148 271.003 212.506 273.103 220.807C280.603 250.557 281.968 255.867 271.071 258.867C270.935 258.897 270.806 258.956 270.694 259.039C270.582 259.122 270.488 259.228 270.418 259.349C270.349 259.471 270.305 259.605 270.29 259.744C270.276 259.883 270.29 260.024 270.332 260.157C270.419 260.417 270.598 260.636 270.836 260.773C271.074 260.909 271.354 260.953 271.623 260.896C275.707 259.747 278.336 258.254 279.735 255.812C282.77 250.513 280.302 240.717 275.152 220.328C272.934 211.593 269.257 205.938 266.56 202.741C266.473 202.634 266.365 202.546 266.243 202.482C266.121 202.418 265.987 202.38 265.849 202.37C265.711 202.36 265.573 202.378 265.443 202.423C265.312 202.469 265.193 202.541 265.091 202.634Z" fill="#CC2140"/>
<defs>
<linearGradient id="paint0_linear_18002_115310" x1="98.0598" y1="154.051" x2="185.25" y2="203.983" gradientUnits="userSpaceOnUse">
<stop stop-color="#D18D5E"/>
<stop offset="0.31" stop-color="#CE8A5C"/>
<stop offset="0.56" stop-color="#C68057"/>
<stop offset="0.78" stop-color="#B8704D"/>
<stop offset="0.93" stop-color="#AA5F44"/>
</linearGradient>
<linearGradient id="paint1_linear_18002_115310" x1="229.867" y1="229.526" x2="126.149" y2="170.127" gradientUnits="userSpaceOnUse">
<stop offset="0.36" stop-color="#D18D5E"/>
<stop offset="0.5" stop-color="#CC875A"/>
<stop offset="0.69" stop-color="#BC7450"/>
<stop offset="0.85" stop-color="#AA5F44"/>
</linearGradient>
<linearGradient id="paint2_linear_18002_115310" x1="17137" y1="4526.39" x2="21016.9" y2="6748.32" gradientUnits="userSpaceOnUse">
<stop stop-color="#D18D5E"/>
<stop offset="0.48" stop-color="#C07953"/>
<stop offset="1" stop-color="#AA5F44"/>
</linearGradient>
<linearGradient id="paint3_linear_18002_115310" x1="239.629" y1="235.125" x2="324.506" y2="283.733" gradientUnits="userSpaceOnUse">
<stop stop-color="#3F99F2"/>
<stop offset="0.25" stop-color="#2F88E9"/>
<stop offset="0.53" stop-color="#247BE2"/>
<stop offset="0.8" stop-color="#2077E0"/>
</linearGradient>
</defs>
</svg>
